<svg aria-hidden="true" style="position:absolute;width:0;height:0" xmlns="http://www.w3.org/2000/svg" overflow="hidden"><defs><symbol id="icon-aim1" viewBox="0 0 32 32"><path d="M16 10.182c-3.215 0-5.818 2.604-5.818 5.818s2.604 5.818 5.818 5.818 5.818-2.604 5.818-5.818-2.604-5.818-5.818-5.818zm13.004 4.363C28.335 8.48 23.52 3.665 17.455 2.996V0h-2.909v2.996C8.481 3.665 3.666 8.48 2.997 14.545H.001v2.909h2.996c.669 6.065 5.484 10.88 11.549 11.549v2.996h2.909v-2.996c6.065-.669 10.88-5.484 11.549-11.549H32v-2.909h-2.996zM16 26.182c-5.622 0-10.182-4.56-10.182-10.182S10.378 5.818 16 5.818 26.182 10.378 26.182 16 21.622 26.182 16 26.182z"/></symbol></defs></svg>