<svg aria-hidden="true" style="position: absolute; width: 0; height: 0; overflow: hidden;" version="1.1" xmlns="http://www.w3.org/2000/svg" xmlns:xlink="http://www.w3.org/1999/xlink">
<defs>
<symbol id="icon-coins" viewBox="0 0 32 32">
<title>coins</title>
<path d="M16 0c-8.822 0-16 7.178-16 16s7.178 16 16 16 16-7.178 16-16-7.178-16-16-16zM15.063 7.854c-1.426-0.061-2.838-0.262-4.186-0.588 0.215-0.51 0.449-1 0.701-1.465 1.034-1.905 2.303-3.241 3.485-3.726zM15.063 9.73v5.333h-5.856c0.083-2.081 0.437-4.147 1.024-6.027 1.555 0.392 3.187 0.629 4.832 0.694zM15.063 16.938v5.333c-1.645 0.066-3.277 0.303-4.832 0.694-0.587-1.879-0.941-3.946-1.024-6.027zM15.063 24.146v5.778c-1.183-0.484-2.452-1.821-3.485-3.726-0.252-0.464-0.486-0.954-0.701-1.465 1.348-0.326 2.76-0.526 4.186-0.588zM16.938 24.146c1.426 0.061 2.838 0.262 4.186 0.588-0.215 0.51-0.449 1-0.701 1.465-1.034 1.905-2.303 3.241-3.485 3.726zM16.938 22.27v-5.333h5.856c-0.083 2.081-0.437 4.147-1.024 6.027-1.555-0.392-3.187-0.629-4.832-0.694zM16.938 15.063v-5.333c1.645-0.066 3.277-0.303 4.832-0.694 0.587 1.879 0.941 3.946 1.024 6.027zM16.938 7.854v-5.778c1.183 0.484 2.452 1.821 3.485 3.726 0.252 0.464 0.486 0.954 0.701 1.465-1.348 0.326-2.76 0.526-4.186 0.588zM22.071 4.907c-0.469-0.865-0.98-1.628-1.517-2.279 1.875 0.64 3.573 1.664 5 2.978-0.814 0.436-1.692 0.815-2.615 1.132-0.262-0.636-0.552-1.248-0.868-1.831zM9.929 4.907c-0.316 0.583-0.606 1.195-0.868 1.831-0.923-0.317-1.801-0.696-2.615-1.132 1.428-1.313 3.126-2.338 5-2.978-0.538 0.651-1.047 1.413-1.517 2.279zM8.427 8.5c-0.64 2.047-1.016 4.279-1.097 6.562h-5.423c0.201-3.047 1.371-5.834 3.206-8.052 1.018 0.584 2.134 1.084 3.314 1.49zM7.33 16.938c0.081 2.284 0.457 4.515 1.097 6.562-1.181 0.406-2.296 0.906-3.314 1.49-1.835-2.218-3.005-5.005-3.206-8.052zM9.061 25.262c0.262 0.636 0.552 1.248 0.868 1.831 0.47 0.865 0.979 1.628 1.517 2.279-1.874-0.64-3.572-1.664-5-2.978 0.814-0.436 1.692-0.815 2.615-1.132zM22.071 27.093c0.316-0.583 0.606-1.195 0.868-1.831 0.923 0.317 1.801 0.696 2.615 1.132-1.428 1.313-3.126 2.338-5 2.978 0.538-0.651 1.047-1.413 1.517-2.279zM23.573 23.5c0.64-2.047 1.016-4.279 1.097-6.562h5.423c-0.201 3.047-1.371 5.834-3.206 8.052-1.018-0.584-2.134-1.084-3.314-1.49zM24.67 15.063c-0.081-2.284-0.457-4.515-1.097-6.562 1.181-0.406 2.296-0.906 3.314-1.49 1.835 2.218 3.005 5.005 3.206 8.052z"></path>
</symbol>
<symbol id="icon-hand" viewBox="0 0 23 32">
<title>hand</title>
<path d="M16 0c-8.822 0-16 7.178-16 16s7.178 16 16 16 16-7.178 16-16-7.178-16-16-16zM15.063 7.854c-1.426-0.061-2.838-0.262-4.186-0.588 0.215-0.51 0.449-1 0.701-1.465 1.034-1.905 2.303-3.241 3.485-3.726zM15.063 9.73v5.333h-5.856c0.083-2.081 0.437-4.147 1.024-6.027 1.555 0.392 3.187 0.629 4.832 0.694zM15.063 16.938v5.333c-1.645 0.066-3.277 0.303-4.832 0.694-0.587-1.879-0.941-3.946-1.024-6.027zM15.063 24.146v5.778c-1.183-0.484-2.452-1.821-3.485-3.726-0.252-0.464-0.486-0.954-0.701-1.465 1.348-0.326 2.76-0.526 4.186-0.588zM16.938 24.146c1.426 0.061 2.838 0.262 4.186 0.588-0.215 0.51-0.449 1-0.701 1.465-1.034 1.905-2.303 3.241-3.485 3.726zM16.938 22.27v-5.333h5.856c-0.083 2.081-0.437 4.147-1.024 6.027-1.555-0.392-3.187-0.629-4.832-0.694zM16.938 15.063v-5.333c1.645-0.066 3.277-0.303 4.832-0.694 0.587 1.879 0.941 3.946 1.024 6.027zM16.938 7.854v-5.778c1.183 0.484 2.452 1.821 3.485 3.726 0.252 0.464 0.486 0.954 0.701 1.465-1.348 0.326-2.76 0.526-4.186 0.588zM22.071 4.907c-0.469-0.865-0.98-1.628-1.517-2.279 1.875 0.64 3.573 1.664 5 2.978-0.814 0.436-1.692 0.815-2.615 1.132-0.262-0.636-0.552-1.248-0.868-1.831zM9.929 4.907c-0.316 0.583-0.606 1.195-0.868 1.831-0.923-0.317-1.801-0.696-2.615-1.132 1.428-1.313 3.126-2.338 5-2.978-0.538 0.651-1.047 1.413-1.517 2.279zM8.427 8.5c-0.64 2.047-1.016 4.279-1.097 6.562h-5.423c0.201-3.047 1.371-5.834 3.206-8.052 1.018 0.584 2.134 1.084 3.314 1.49zM7.33 16.938c0.081 2.284 0.457 4.515 1.097 6.562-1.181 0.406-2.296 0.906-3.314 1.49-1.835-2.218-3.005-5.005-3.206-8.052zM9.061 25.262c0.262 0.636 0.552 1.248 0.868 1.831 0.47 0.865 0.979 1.628 1.517 2.279-1.874-0.64-3.572-1.664-5-2.978 0.814-0.436 1.692-0.815 2.615-1.132zM22.071 27.093c0.316-0.583 0.606-1.195 0.868-1.831 0.923 0.317 1.801 0.696 2.615 1.132-1.428 1.313-3.126 2.338-5 2.978 0.538-0.651 1.047-1.413 1.517-2.279zM23.573 23.5c0.64-2.047 1.016-4.279 1.097-6.562h5.423c-0.201 3.047-1.371 5.834-3.206 8.052-1.018-0.584-2.134-1.084-3.314-1.49zM24.67 15.063c-0.081-2.284-0.457-4.515-1.097-6.562 1.181-0.406 2.296-0.906 3.314-1.49 1.835 2.218 3.005 5.005 3.206 8.052z"></path>
</symbol>
<symbol id="icon-handshake" viewBox="0 0 32 32">
<title>handshake</title>
<path d="M16 0c-8.822 0-16 7.178-16 16s7.178 16 16 16 16-7.178 16-16-7.178-16-16-16zM15.063 7.854c-1.426-0.061-2.838-0.262-4.186-0.588 0.215-0.51 0.449-1 0.701-1.465 1.034-1.905 2.303-3.241 3.485-3.726zM15.063 9.73v5.333h-5.856c0.083-2.081 0.437-4.147 1.024-6.027 1.555 0.392 3.187 0.629 4.832 0.694zM15.063 16.938v5.333c-1.645 0.066-3.277 0.303-4.832 0.694-0.587-1.879-0.941-3.946-1.024-6.027zM15.063 24.146v5.778c-1.183-0.484-2.452-1.821-3.485-3.726-0.252-0.464-0.486-0.954-0.701-1.465 1.348-0.326 2.76-0.526 4.186-0.588zM16.938 24.146c1.426 0.061 2.838 0.262 4.186 0.588-0.215 0.51-0.449 1-0.701 1.465-1.034 1.905-2.303 3.241-3.485 3.726zM16.938 22.27v-5.333h5.856c-0.083 2.081-0.437 4.147-1.024 6.027-1.555-0.392-3.187-0.629-4.832-0.694zM16.938 15.063v-5.333c1.645-0.066 3.277-0.303 4.832-0.694 0.587 1.879 0.941 3.946 1.024 6.027zM16.938 7.854v-5.778c1.183 0.484 2.452 1.821 3.485 3.726 0.252 0.464 0.486 0.954 0.701 1.465-1.348 0.326-2.76 0.526-4.186 0.588zM22.071 4.907c-0.469-0.865-0.98-1.628-1.517-2.279 1.875 0.64 3.573 1.664 5 2.978-0.814 0.436-1.692 0.815-2.615 1.132-0.262-0.636-0.552-1.248-0.868-1.831zM9.929 4.907c-0.316 0.583-0.606 1.195-0.868 1.831-0.923-0.317-1.801-0.696-2.615-1.132 1.428-1.313 3.126-2.338 5-2.978-0.538 0.651-1.047 1.413-1.517 2.279zM8.427 8.5c-0.64 2.047-1.016 4.279-1.097 6.562h-5.423c0.201-3.047 1.371-5.834 3.206-8.052 1.018 0.584 2.134 1.084 3.314 1.49zM7.33 16.938c0.081 2.284 0.457 4.515 1.097 6.562-1.181 0.406-2.296 0.906-3.314 1.49-1.835-2.218-3.005-5.005-3.206-8.052zM9.061 25.262c0.262 0.636 0.552 1.248 0.868 1.831 0.47 0.865 0.979 1.628 1.517 2.279-1.874-0.64-3.572-1.664-5-2.978 0.814-0.436 1.692-0.815 2.615-1.132zM22.071 27.093c0.316-0.583 0.606-1.195 0.868-1.831 0.923 0.317 1.801 0.696 2.615 1.132-1.428 1.313-3.126 2.338-5 2.978 0.538-0.651 1.047-1.413 1.517-2.279zM23.573 23.5c0.64-2.047 1.016-4.279 1.097-6.562h5.423c-0.201 3.047-1.371 5.834-3.206 8.052-1.018-0.584-2.134-1.084-3.314-1.49zM24.67 15.063c-0.081-2.284-0.457-4.515-1.097-6.562 1.181-0.406 2.296-0.906 3.314-1.49 1.835 2.218 3.005 5.005 3.206 8.052z"></path>
</symbol>
<symbol id="icon-light" viewBox="0 0 32 32">
<title>light</title>
<path d="M16 0c-8.822 0-16 7.178-16 16s7.178 16 16 16 16-7.178 16-16-7.178-16-16-16zM15.063 7.854c-1.426-0.061-2.838-0.262-4.186-0.588 0.215-0.51 0.449-1 0.701-1.465 1.034-1.905 2.303-3.241 3.485-3.726zM15.063 9.73v5.333h-5.856c0.083-2.081 0.437-4.147 1.024-6.027 1.555 0.392 3.187 0.629 4.832 0.694zM15.063 16.938v5.333c-1.645 0.066-3.277 0.303-4.832 0.694-0.587-1.879-0.941-3.946-1.024-6.027zM15.063 24.146v5.778c-1.183-0.484-2.452-1.821-3.485-3.726-0.252-0.464-0.486-0.954-0.701-1.465 1.348-0.326 2.76-0.526 4.186-0.588zM16.938 24.146c1.426 0.061 2.838 0.262 4.186 0.588-0.215 0.51-0.449 1-0.701 1.465-1.034 1.905-2.303 3.241-3.485 3.726zM16.938 22.27v-5.333h5.856c-0.083 2.081-0.437 4.147-1.024 6.027-1.555-0.392-3.187-0.629-4.832-0.694zM16.938 15.063v-5.333c1.645-0.066 3.277-0.303 4.832-0.694 0.587 1.879 0.941 3.946 1.024 6.027zM16.938 7.854v-5.778c1.183 0.484 2.452 1.821 3.485 3.726 0.252 0.464 0.486 0.954 0.701 1.465-1.348 0.326-2.76 0.526-4.186 0.588zM22.071 4.907c-0.469-0.865-0.98-1.628-1.517-2.279 1.875 0.64 3.573 1.664 5 2.978-0.814 0.436-1.692 0.815-2.615 1.132-0.262-0.636-0.552-1.248-0.868-1.831zM9.929 4.907c-0.316 0.583-0.606 1.195-0.868 1.831-0.923-0.317-1.801-0.696-2.615-1.132 1.428-1.313 3.126-2.338 5-2.978-0.538 0.651-1.047 1.413-1.517 2.279zM8.427 8.5c-0.64 2.047-1.016 4.279-1.097 6.562h-5.423c0.201-3.047 1.371-5.834 3.206-8.052 1.018 0.584 2.134 1.084 3.314 1.49zM7.33 16.938c0.081 2.284 0.457 4.515 1.097 6.562-1.181 0.406-2.296 0.906-3.314 1.49-1.835-2.218-3.005-5.005-3.206-8.052zM9.061 25.262c0.262 0.636 0.552 1.248 0.868 1.831 0.47 0.865 0.979 1.628 1.517 2.279-1.874-0.64-3.572-1.664-5-2.978 0.814-0.436 1.692-0.815 2.615-1.132zM22.071 27.093c0.316-0.583 0.606-1.195 0.868-1.831 0.923 0.317 1.801 0.696 2.615 1.132-1.428 1.313-3.126 2.338-5 2.978 0.538-0.651 1.047-1.413 1.517-2.279zM23.573 23.5c0.64-2.047 1.016-4.279 1.097-6.562h5.423c-0.201 3.047-1.371 5.834-3.206 8.052-1.018-0.584-2.134-1.084-3.314-1.49zM24.67 15.063c-0.081-2.284-0.457-4.515-1.097-6.562 1.181-0.406 2.296-0.906 3.314-1.49 1.835 2.218 3.005 5.005 3.206 8.052z"></path>
</symbol>
<symbol id="icon-list" viewBox="0 0 32 32">
<title>list</title>
<path d="M16 0c-8.822 0-16 7.178-16 16s7.178 16 16 16 16-7.178 16-16-7.178-16-16-16zM15.063 7.854c-1.426-0.061-2.838-0.262-4.186-0.588 0.215-0.51 0.449-1 0.701-1.465 1.034-1.905 2.303-3.241 3.485-3.726zM15.063 9.73v5.333h-5.856c0.083-2.081 0.437-4.147 1.024-6.027 1.555 0.392 3.187 0.629 4.832 0.694zM15.063 16.938v5.333c-1.645 0.066-3.277 0.303-4.832 0.694-0.587-1.879-0.941-3.946-1.024-6.027zM15.063 24.146v5.778c-1.183-0.484-2.452-1.821-3.485-3.726-0.252-0.464-0.486-0.954-0.701-1.465 1.348-0.326 2.76-0.526 4.186-0.588zM16.938 24.146c1.426 0.061 2.838 0.262 4.186 0.588-0.215 0.51-0.449 1-0.701 1.465-1.034 1.905-2.303 3.241-3.485 3.726zM16.938 22.27v-5.333h5.856c-0.083 2.081-0.437 4.147-1.024 6.027-1.555-0.392-3.187-0.629-4.832-0.694zM16.938 15.063v-5.333c1.645-0.066 3.277-0.303 4.832-0.694 0.587 1.879 0.941 3.946 1.024 6.027zM16.938 7.854v-5.778c1.183 0.484 2.452 1.821 3.485 3.726 0.252 0.464 0.486 0.954 0.701 1.465-1.348 0.326-2.76 0.526-4.186 0.588zM22.071 4.907c-0.469-0.865-0.98-1.628-1.517-2.279 1.875 0.64 3.573 1.664 5 2.978-0.814 0.436-1.692 0.815-2.615 1.132-0.262-0.636-0.552-1.248-0.868-1.831zM9.929 4.907c-0.316 0.583-0.606 1.195-0.868 1.831-0.923-0.317-1.801-0.696-2.615-1.132 1.428-1.313 3.126-2.338 5-2.978-0.538 0.651-1.047 1.413-1.517 2.279zM8.427 8.5c-0.64 2.047-1.016 4.279-1.097 6.562h-5.423c0.201-3.047 1.371-5.834 3.206-8.052 1.018 0.584 2.134 1.084 3.314 1.49zM7.33 16.938c0.081 2.284 0.457 4.515 1.097 6.562-1.181 0.406-2.296 0.906-3.314 1.49-1.835-2.218-3.005-5.005-3.206-8.052zM9.061 25.262c0.262 0.636 0.552 1.248 0.868 1.831 0.47 0.865 0.979 1.628 1.517 2.279-1.874-0.64-3.572-1.664-5-2.978 0.814-0.436 1.692-0.815 2.615-1.132zM22.071 27.093c0.316-0.583 0.606-1.195 0.868-1.831 0.923 0.317 1.801 0.696 2.615 1.132-1.428 1.313-3.126 2.338-5 2.978 0.538-0.651 1.047-1.413 1.517-2.279zM23.573 23.5c0.64-2.047 1.016-4.279 1.097-6.562h5.423c-0.201 3.047-1.371 5.834-3.206 8.052-1.018-0.584-2.134-1.084-3.314-1.49zM24.67 15.063c-0.081-2.284-0.457-4.515-1.097-6.562 1.181-0.406 2.296-0.906 3.314-1.49 1.835 2.218 3.005 5.005 3.206 8.052z"></path>
</symbol>
<symbol id="icon-rudder" viewBox="0 0 32 32">
<title>rudder</title>
<path d="M16 0c-8.822 0-16 7.178-16 16s7.178 16 16 16 16-7.178 16-16-7.178-16-16-16zM15.063 7.854c-1.426-0.061-2.838-0.262-4.186-0.588 0.215-0.51 0.449-1 0.701-1.465 1.034-1.905 2.303-3.241 3.485-3.726zM15.063 9.73v5.333h-5.856c0.083-2.081 0.437-4.147 1.024-6.027 1.555 0.392 3.187 0.629 4.832 0.694zM15.063 16.938v5.333c-1.645 0.066-3.277 0.303-4.832 0.694-0.587-1.879-0.941-3.946-1.024-6.027zM15.063 24.146v5.778c-1.183-0.484-2.452-1.821-3.485-3.726-0.252-0.464-0.486-0.954-0.701-1.465 1.348-0.326 2.76-0.526 4.186-0.588zM16.938 24.146c1.426 0.061 2.838 0.262 4.186 0.588-0.215 0.51-0.449 1-0.701 1.465-1.034 1.905-2.303 3.241-3.485 3.726zM16.938 22.27v-5.333h5.856c-0.083 2.081-0.437 4.147-1.024 6.027-1.555-0.392-3.187-0.629-4.832-0.694zM16.938 15.063v-5.333c1.645-0.066 3.277-0.303 4.832-0.694 0.587 1.879 0.941 3.946 1.024 6.027zM16.938 7.854v-5.778c1.183 0.484 2.452 1.821 3.485 3.726 0.252 0.464 0.486 0.954 0.701 1.465-1.348 0.326-2.76 0.526-4.186 0.588zM22.071 4.907c-0.469-0.865-0.98-1.628-1.517-2.279 1.875 0.64 3.573 1.664 5 2.978-0.814 0.436-1.692 0.815-2.615 1.132-0.262-0.636-0.552-1.248-0.868-1.831zM9.929 4.907c-0.316 0.583-0.606 1.195-0.868 1.831-0.923-0.317-1.801-0.696-2.615-1.132 1.428-1.313 3.126-2.338 5-2.978-0.538 0.651-1.047 1.413-1.517 2.279zM8.427 8.5c-0.64 2.047-1.016 4.279-1.097 6.562h-5.423c0.201-3.047 1.371-5.834 3.206-8.052 1.018 0.584 2.134 1.084 3.314 1.49zM7.33 16.938c0.081 2.284 0.457 4.515 1.097 6.562-1.181 0.406-2.296 0.906-3.314 1.49-1.835-2.218-3.005-5.005-3.206-8.052zM9.061 25.262c0.262 0.636 0.552 1.248 0.868 1.831 0.47 0.865 0.979 1.628 1.517 2.279-1.874-0.64-3.572-1.664-5-2.978 0.814-0.436 1.692-0.815 2.615-1.132zM22.071 27.093c0.316-0.583 0.606-1.195 0.868-1.831 0.923 0.317 1.801 0.696 2.615 1.132-1.428 1.313-3.126 2.338-5 2.978 0.538-0.651 1.047-1.413 1.517-2.279zM23.573 23.5c0.64-2.047 1.016-4.279 1.097-6.562h5.423c-0.201 3.047-1.371 5.834-3.206 8.052-1.018-0.584-2.134-1.084-3.314-1.49zM24.67 15.063c-0.081-2.284-0.457-4.515-1.097-6.562 1.181-0.406 2.296-0.906 3.314-1.49 1.835 2.218 3.005 5.005 3.206 8.052z"></path>
</symbol>
<symbol id="icon-target" viewBox="0 0 32 32">
<title>target</title>
<path d="M16 0c-8.822 0-16 7.178-16 16s7.178 16 16 16 16-7.178 16-16-7.178-16-16-16zM15.063 7.854c-1.426-0.061-2.838-0.262-4.186-0.588 0.215-0.51 0.449-1 0.701-1.465 1.034-1.905 2.303-3.241 3.485-3.726zM15.063 9.73v5.333h-5.856c0.083-2.081 0.437-4.147 1.024-6.027 1.555 0.392 3.187 0.629 4.832 0.694zM15.063 16.938v5.333c-1.645 0.066-3.277 0.303-4.832 0.694-0.587-1.879-0.941-3.946-1.024-6.027zM15.063 24.146v5.778c-1.183-0.484-2.452-1.821-3.485-3.726-0.252-0.464-0.486-0.954-0.701-1.465 1.348-0.326 2.76-0.526 4.186-0.588zM16.938 24.146c1.426 0.061 2.838 0.262 4.186 0.588-0.215 0.51-0.449 1-0.701 1.465-1.034 1.905-2.303 3.241-3.485 3.726zM16.938 22.27v-5.333h5.856c-0.083 2.081-0.437 4.147-1.024 6.027-1.555-0.392-3.187-0.629-4.832-0.694zM16.938 15.063v-5.333c1.645-0.066 3.277-0.303 4.832-0.694 0.587 1.879 0.941 3.946 1.024 6.027zM16.938 7.854v-5.778c1.183 0.484 2.452 1.821 3.485 3.726 0.252 0.464 0.486 0.954 0.701 1.465-1.348 0.326-2.76 0.526-4.186 0.588zM22.071 4.907c-0.469-0.865-0.98-1.628-1.517-2.279 1.875 0.64 3.573 1.664 5 2.978-0.814 0.436-1.692 0.815-2.615 1.132-0.262-0.636-0.552-1.248-0.868-1.831zM9.929 4.907c-0.316 0.583-0.606 1.195-0.868 1.831-0.923-0.317-1.801-0.696-2.615-1.132 1.428-1.313 3.126-2.338 5-2.978-0.538 0.651-1.047 1.413-1.517 2.279zM8.427 8.5c-0.64 2.047-1.016 4.279-1.097 6.562h-5.423c0.201-3.047 1.371-5.834 3.206-8.052 1.018 0.584 2.134 1.084 3.314 1.49zM7.33 16.938c0.081 2.284 0.457 4.515 1.097 6.562-1.181 0.406-2.296 0.906-3.314 1.49-1.835-2.218-3.005-5.005-3.206-8.052zM9.061 25.262c0.262 0.636 0.552 1.248 0.868 1.831 0.47 0.865 0.979 1.628 1.517 2.279-1.874-0.64-3.572-1.664-5-2.978 0.814-0.436 1.692-0.815 2.615-1.132zM22.071 27.093c0.316-0.583 0.606-1.195 0.868-1.831 0.923 0.317 1.801 0.696 2.615 1.132-1.428 1.313-3.126 2.338-5 2.978 0.538-0.651 1.047-1.413 1.517-2.279zM23.573 23.5c0.64-2.047 1.016-4.279 1.097-6.562h5.423c-0.201 3.047-1.371 5.834-3.206 8.052-1.018-0.584-2.134-1.084-3.314-1.49zM24.67 15.063c-0.081-2.284-0.457-4.515-1.097-6.562 1.181-0.406 2.296-0.906 3.314-1.49 1.835 2.218 3.005 5.005 3.206 8.052z"></path>
</symbol>
<symbol id="icon-worldwide" viewBox="0 0 32 32">
<title>worldwide</title>
<path d="M16 0c-8.822 0-16 7.178-16 16s7.178 16 16 16 16-7.178 16-16-7.178-16-16-16zM15.063 7.854c-1.426-0.061-2.838-0.262-4.186-0.588 0.215-0.51 0.449-1 0.701-1.465 1.034-1.905 2.303-3.241 3.485-3.726zM15.063 9.73v5.333h-5.856c0.083-2.081 0.437-4.147 1.024-6.027 1.555 0.392 3.187 0.629 4.832 0.694zM15.063 16.938v5.333c-1.645 0.066-3.277 0.303-4.832 0.694-0.587-1.879-0.941-3.946-1.024-6.027zM15.063 24.146v5.778c-1.183-0.484-2.452-1.821-3.485-3.726-0.252-0.464-0.486-0.954-0.701-1.465 1.348-0.326 2.76-0.526 4.186-0.588zM16.938 24.146c1.426 0.061 2.838 0.262 4.186 0.588-0.215 0.51-0.449 1-0.701 1.465-1.034 1.905-2.303 3.241-3.485 3.726zM16.938 22.27v-5.333h5.856c-0.083 2.081-0.437 4.147-1.024 6.027-1.555-0.392-3.187-0.629-4.832-0.694zM16.938 15.063v-5.333c1.645-0.066 3.277-0.303 4.832-0.694 0.587 1.879 0.941 3.946 1.024 6.027zM16.938 7.854v-5.778c1.183 0.484 2.452 1.821 3.485 3.726 0.252 0.464 0.486 0.954 0.701 1.465-1.348 0.326-2.76 0.526-4.186 0.588zM22.071 4.907c-0.469-0.865-0.98-1.628-1.517-2.279 1.875 0.64 3.573 1.664 5 2.978-0.814 0.436-1.692 0.815-2.615 1.132-0.262-0.636-0.552-1.248-0.868-1.831zM9.929 4.907c-0.316 0.583-0.606 1.195-0.868 1.831-0.923-0.317-1.801-0.696-2.615-1.132 1.428-1.313 3.126-2.338 5-2.978-0.538 0.651-1.047 1.413-1.517 2.279zM8.427 8.5c-0.64 2.047-1.016 4.279-1.097 6.562h-5.423c0.201-3.047 1.371-5.834 3.206-8.052 1.018 0.584 2.134 1.084 3.314 1.49zM7.33 16.938c0.081 2.284 0.457 4.515 1.097 6.562-1.181 0.406-2.296 0.906-3.314 1.49-1.835-2.218-3.005-5.005-3.206-8.052zM9.061 25.262c0.262 0.636 0.552 1.248 0.868 1.831 0.47 0.865 0.979 1.628 1.517 2.279-1.874-0.64-3.572-1.664-5-2.978 0.814-0.436 1.692-0.815 2.615-1.132zM22.071 27.093c0.316-0.583 0.606-1.195 0.868-1.831 0.923 0.317 1.801 0.696 2.615 1.132-1.428 1.313-3.126 2.338-5 2.978 0.538-0.651 1.047-1.413 1.517-2.279zM23.573 23.5c0.64-2.047 1.016-4.279 1.097-6.562h5.423c-0.201 3.047-1.371 5.834-3.206 8.052-1.018-0.584-2.134-1.084-3.314-1.49zM24.67 15.063c-0.081-2.284-0.457-4.515-1.097-6.562 1.181-0.406 2.296-0.906 3.314-1.49 1.835 2.218 3.005 5.005 3.206 8.052z"></path>
</symbol>
</defs>
</svg>
