<svg aria-hidden="true" style="position:absolute;width:0;height:0" xmlns="http://www.w3.org/2000/svg" overflow="hidden"><defs><symbol id="icon-agreement" viewBox="0 0 32 32"><path d="M31.863 19.862l-2.419-2.419a1.682 1.682 0 00-1.198-.496c-.332 0-.649.095-.921.272l-2.065-2.065.716-.716a1.965 1.965 0 000-2.772 1.947 1.947 0 00-1.213-.566 1.961 1.961 0 00-1.613-2.502c.088-.225.134-.466.134-.715a1.955 1.955 0 00-1.799-1.953 1.963 1.963 0 00-1.883-2.503 1.94 1.94 0 00-1.07.318l-.129-.245c-.3-.57-.929-.893-1.567-.804l-2.955.412a1.88 1.88 0 00-1.258-.478c-.506 0-.983.197-1.341.556a1.888 1.888 0 00-.55 1.23 1.887 1.887 0 00-1.744.512 1.899 1.899 0 00-.464 1.92 1.892 1.892 0 00-1.113.54 1.9 1.9 0 00-.498 1.802 1.884 1.884 0 00-1.189.548 1.898 1.898 0 000 2.681l.739.739c.081.081.169.153.26.217.082.543.298 1.057.626 1.495l-2.672 2.673a1.697 1.697 0 00-2.119.224L.139 20.186a.47.47 0 00.662.663L3.22 18.43a.756.756 0 011.069 0l1.505 1.505a.469.469 0 00.663-.663L5.365 18.18l2.954-2.954a.469.469 0 000-.663 2.39 2.39 0 01-.546-.85l.029.001a1.895 1.895 0 001.889-1.727 1.887 1.887 0 001.823-.493c.303-.303.481-.684.536-1.078a1.902 1.902 0 001.975-.447 1.899 1.899 0 00.225-2.409 1.88 1.88 0 00.899-.504l.017-.018a2.29 2.29 0 00.259-.032l1.086-.19a.472.472 0 00.361-.142l.009-.008 1.843-1.843.014-.014.141-.141c.193-.193.45-.3.723-.3s.53.106.723.299a1.024 1.024 0 010 1.446l-.387.387a.469.469 0 00.663.663l.002-.002a1.023 1.023 0 011.443 1.448l-.545.545-.003.003a.468.468 0 10.664.663l.002-.002c.192-.192.448-.297.721-.297s.53.106.723.299a1.024 1.024 0 010 1.446l-.403.403a.469.469 0 00.663.664c.193-.193.45-.299.723-.299s.53.106.723.299a1.026 1.026 0 010 1.447l-1.042 1.042-.005.005a.012.012 0 01-.005.005l-6.016 6.016c-.408.408-.951.633-1.529.633s-1.12-.225-1.528-.633l-.085-.085a.469.469 0 00-.663 0l-3.247 3.247-3.402-3.402a.469.469 0 00-.663.663l3.815 3.815a.756.756 0 010 1.069l-2.419 2.419a.469.469 0 00.662.663l2.419-2.419a1.697 1.697 0 00.224-2.119l2.955-2.955a3.073 3.073 0 001.931.675c.828 0 1.606-.322 2.192-.908l5.69-5.689 2.039 2.039-5.827 5.827-1.216-1.216a.469.469 0 00-.663.663l1.242 1.242a1.682 1.682 0 00-.272.922c0 .452.176.878.496 1.198l2.419 2.419a.469.469 0 00.663-.663l-2.419-2.419a.755.755 0 010-1.07l6.653-6.653a.752.752 0 011.07 0l2.419 2.419a.469.469 0 00.663-.663zM11.944 3.849a.948.948 0 01.622-.278l-.024.029a1.004 1.004 0 00-.186.757l.081.512a2.559 2.559 0 001.183 1.784.943.943 0 01-.491-.263L11.94 5.202a.96.96 0 01.002-1.353zM8.48 12.494a.958.958 0 01-1.355 0l-.739-.738A.96.96 0 017.74 10.4l.739.739c.181.181.281.422.281.678s-.1.497-.281.678zm2.37-1.666c-.181.181-.422.281-.678.281s-.497-.1-.678-.281l-1.09-1.091-.002-.002-.33-.33A.96.96 0 019.427 8.05l1.422 1.422a.96.96 0 010 1.355zm2.511-1.525c-.181.181-.422.281-.678.281s-.497-.1-.678-.281l-.492-.492-1.422-1.422-.002-.002-.44-.44a.958.958 0 011.355-1.355l.271.271.005.005 2.08 2.08a.958.958 0 010 1.355zm4.125-4.572l-1.164 1.164-1.059.185c-.436.076-.874-.024-1.234-.281s-.596-.64-.666-1.077l-.081-.512c-.004-.024.005-.042.013-.053s.023-.024.047-.028l3.622-.505a.598.598 0 01.609.312l.244.464-.33.33z"/></symbol><symbol id="icon-rudder" viewBox="0 0 32 32"><path d="M16 10.182c-3.215 0-5.818 2.604-5.818 5.818s2.604 5.818 5.818 5.818 5.818-2.604 5.818-5.818-2.604-5.818-5.818-5.818zm13.004 4.363C28.335 8.48 23.52 3.665 17.455 2.996V0h-2.909v2.996C8.481 3.665 3.666 8.48 2.997 14.545H.001v2.909h2.996c.669 6.065 5.484 10.88 11.549 11.549v2.996h2.909v-2.996c6.065-.669 10.88-5.484 11.549-11.549H32v-2.909h-2.996zM16 26.182c-5.622 0-10.182-4.56-10.182-10.182S10.378 5.818 16 5.818 26.182 10.378 26.182 16 21.622 26.182 16 26.182z"/></symbol><symbol id="icon-idea" viewBox="0 0 32 32"><path d="M18.75 28.384h-8.428v1.033h2.929v1.033c0 .857.693 1.55 1.55 1.55h2.4c.857 0 1.55-.693 1.55-1.55v-1.033h2.929v-1.033h-2.929zm-1.033 2.066a.52.52 0 01-.517.517h-2.4a.52.52 0 01-.517-.517v-1.033h3.433v1.033zm3.307-14.683h.989l-6.016-8.636-6.016 8.636h.989c.945 0 1.72.762 1.72 1.701v.592h-1.159v1.033h1.883v3.616h5.165v-3.616h1.883V18.06h-1.159v-.592a1.71 1.71 0 011.72-1.701zm-5.027-2.192a.598.598 0 110 1.195.598.598 0 010-1.195zm1.549 8.101h-3.099v-2.52h3.099v2.52zm.725-4.208v.592h-4.548v-.592a2.735 2.735 0 00-1.865-2.589l3.622-5.197v2.954a1.63 1.63 0 102.147 1.544c0-.718-.472-1.323-1.115-1.543V9.683l3.622 5.197a2.749 2.749 0 00-1.865 2.589zm9.6-3.534h2.583v1.033h-2.583v-1.033zm-26.325 0h2.583v1.033H1.546v-1.033zM15.48 0h1.033v2.583H15.48V0zm9.682 4.554l1.826-1.826.73.731-1.826 1.826-.73-.731zM5.411 24.301l1.826-1.826.731.73-1.826 1.826-.731-.73zM4.337 3.522l.731-.731 1.826 1.826-.731.731-1.826-1.826zm19.687 19.684l.731-.73 1.826 1.826-.731.73-1.826-1.826z"/><path d="M25.446 13.109a9.454 9.454 0 00-3.15-7.043c-2.028-1.814-4.655-2.646-7.383-2.343-4.296.479-7.786 3.943-8.296 8.233-.309 2.608.435 5.153 2.091 7.162a11.556 11.556 0 012.639 7.206H10.32v1.033h11.357v-1.033H20.65c.032-2.589.97-5.121 2.74-7.332a9.365 9.365 0 002.054-5.883zm-5.833 13.215h-7.232a12.626 12.626 0 00-2.879-7.868c-1.474-1.789-2.135-4.05-1.858-6.381.454-3.824 3.559-6.904 7.383-7.332 2.438-.271 4.769.472 6.576 2.085a8.426 8.426 0 012.809 6.274 8.334 8.334 0 01-1.833 5.241c-1.915 2.4-2.935 5.153-2.967 7.981z"/></symbol><symbol id="icon-mission" viewBox="0 0 32 32"><path d="M19.555 8.961a.623.623 0 00.884 0 .625.625 0 000-.884l-.008-.008a.625.625 0 00-.884.884l.009.008z"/><path d="M29.639 14.875l2.178-2.178a.624.624 0 00-.442-1.067h-4.516a13.575 13.575 0 00-3.6-6.389c-2.573-2.573-5.995-3.991-9.634-3.991S6.564 2.667 3.991 5.241C1.418 7.814 0 11.236 0 14.875s1.417 7.061 3.991 9.634a13.72 13.72 0 002.505 1.981l-1.883 3.327a.627.627 0 00.544.933h3.219a.625.625 0 00.544-.317l1.331-2.352c1.09.276 2.221.419 3.375.419s2.285-.143 3.375-.419l1.331 2.352a.625.625 0 00.544.317h3.219a.626.626 0 00.544-.933l-1.883-3.327a13.755 13.755 0 002.505-1.981 13.579 13.579 0 003.6-6.389h4.516a.627.627 0 00.442-1.067l-2.178-2.178zm-1.143-.625h-4.362l1.37-1.37h4.362l-1.37 1.37zM8.011 29.5H6.229l1.36-2.403c.467.231.946.436 1.437.611L8.011 29.5zm13.011 0H19.24l-1.015-1.792c.49-.175.97-.38 1.437-.611l1.36 2.403zm1.353-5.875a12.438 12.438 0 01-2.74 2.073l-.037.018-.022.014c-.761.419-1.564.755-2.396 1.004a12.432 12.432 0 01-3.555.516 12.427 12.427 0 01-3.555-.516 12.185 12.185 0 01-2.396-1.004l-.022-.014c-.012-.007-.024-.012-.037-.018a12.392 12.392 0 01-2.74-2.073c-2.337-2.337-3.625-5.445-3.625-8.75s1.287-6.413 3.625-8.75C7.212 3.788 10.32 2.5 13.625 2.5s6.413 1.287 8.75 3.625a12.339 12.339 0 013.194 5.505h-.324a.625.625 0 00-.442.183l-1.659 1.659a9.62 9.62 0 00-1.09-3.246.625.625 0 10-1.094.604 8.31 8.31 0 011.01 3.42h-2.756a5.581 5.581 0 00-1.612-3.352C16.54 9.835 15.127 9.25 13.625 9.25s-2.915.585-3.977 1.648C8.586 11.961 8 13.373 8 14.875s.585 2.915 1.647 3.977c1.062 1.062 2.475 1.648 3.978 1.648s2.915-.585 3.977-1.648a5.578 5.578 0 001.612-3.352h2.753a8.387 8.387 0 01-2.421 5.297c-1.582 1.582-3.685 2.453-5.922 2.453s-4.34-.871-5.922-2.453a8.32 8.32 0 01-2.453-5.922 8.32 8.32 0 012.453-5.922c2.624-2.624 6.723-3.205 9.967-1.414a.625.625 0 10.604-1.094 9.7 9.7 0 00-5.936-1.109 9.542 9.542 0 00-5.52 2.733c-1.818 1.818-2.819 4.235-2.819 6.806s1.001 4.988 2.819 6.806c1.818 1.818 4.235 2.819 6.806 2.819s4.988-1.001 6.806-2.819a9.537 9.537 0 002.716-5.4l1.657 1.657a.625.625 0 00.442.183h.323a12.332 12.332 0 01-3.193 5.505zm-6.709-9.928a.626.626 0 00-.854-.229l-1.5.866a.623.623 0 000 1.082l1.5.866a.625.625 0 00.889-.782h2.255a4.345 4.345 0 01-1.237 2.469c-.826.826-1.925 1.281-3.094 1.281s-2.267-.455-3.094-1.281c-.826-.826-1.281-1.925-1.281-3.094s.455-2.267 1.281-3.094c.826-.826 1.925-1.281 3.094-1.281s2.267.455 3.094 1.281a4.345 4.345 0 011.237 2.469h-2.255a.622.622 0 00-.035-.553zm9.838 3.173l-1.37-1.37h4.362l1.37 1.37h-4.362z"/></symbol><symbol id="icon-money" viewBox="0 0 32 32"><path d="M21.372 20.522c-.758 0-1.375-.534-1.375-1.19s.617-1.19 1.375-1.19 1.375.534 1.375 1.19a.625.625 0 001.25 0c0-1.145-.853-2.108-2-2.37v-.325a.625.625 0 00-1.25 0v.325c-1.147.261-2 1.224-2 2.37 0 1.345 1.178 2.44 2.625 2.44.758 0 1.375.534 1.375 1.19s-.617 1.19-1.375 1.19-1.375-.534-1.375-1.19a.625.625 0 00-1.25 0c0 1.145.853 2.108 2 2.37v.27a.625.625 0 001.25 0v-.27c1.147-.261 2-1.224 2-2.37 0-1.346-1.178-2.44-2.625-2.44zm6.846-3.717a8.148 8.148 0 00-3.326-2.944.624.624 0 10-.541 1.127 6.917 6.917 0 013.9 6.2 6.888 6.888 0 01-.801 3.224.624.624 0 101.103.586 8.141 8.141 0 00-.334-8.195zm-5.863-3.742h-.042a.625.625 0 000 1.25h.039a.625.625 0 00.003-1.25zM18.4 27.388a6.917 6.917 0 01-3.9-6.2c0-1.124.277-2.239.801-3.224a.624.624 0 10-1.103-.587 8.141 8.141 0 00.334 8.195 8.148 8.148 0 003.326 2.944.622.622 0 00.834-.292.625.625 0 00-.293-.834zm2.038.675h-.036a.625.625 0 10-.006 1.25h.042a.625.625 0 000-1.25z"/><path d="M24.213 10.948a2.863 2.863 0 00-.278-.511h1.627c1.585 0 2.875-1.29 2.875-2.875s-1.29-2.875-2.875-2.875h-5.005a2.86 2.86 0 00.505-1.625A2.879 2.879 0 0018.187.187H2.875C1.29.187 0 1.477 0 3.062s1.29 2.875 2.875 2.875H7.88c-.318.463-.505 1.022-.505 1.625s.187 1.162.505 1.625H6.25a2.872 2.872 0 00-1.787 5.125 2.87 2.87 0 000 4.5 2.87 2.87 0 000 4.5 2.87 2.87 0 00-1.088 2.25 2.879 2.879 0 002.875 2.875h7.366a10.598 10.598 0 007.759 3.375C27.234 31.812 32 27.046 32 21.187c0-4.876-3.302-8.995-7.787-10.24zm1.349-5.01c.896 0 1.625.729 1.625 1.625s-.729 1.625-1.625 1.625H10.25c-.896 0-1.625-.729-1.625-1.625s.729-1.625 1.625-1.625h15.312zM2.875 4.688c-.896 0-1.625-.729-1.625-1.625s.729-1.625 1.625-1.625h15.312c.896 0 1.625.729 1.625 1.625s-.729 1.625-1.625 1.625H2.875zm3.375 5.749h15.312c.252 0 .493.059.709.163a10.595 10.595 0 00-8.415 3.087H6.25c-.896 0-1.625-.729-1.625-1.625s.729-1.625 1.625-1.625zm0 4.5h6.538a10.569 10.569 0 00-1.606 3.25H6.25c-.896 0-1.625-.729-1.625-1.625s.729-1.625 1.625-1.625zm0 4.5h4.645a10.633 10.633 0 00-.039 3.25H6.25c-.896 0-1.625-.729-1.625-1.625s.729-1.625 1.625-1.625zm0 7.75c-.896 0-1.625-.729-1.625-1.625s.729-1.625 1.625-1.625h4.862a10.566 10.566 0 001.5 3.25H6.251zm15.125 3.376c-5.169 0-9.375-4.206-9.375-9.375s4.206-9.375 9.375-9.375 9.375 4.206 9.375 9.375-4.206 9.375-9.375 9.375z"/></symbol><symbol id="icon-portfolio" viewBox="0 0 32 32"><path d="M25.875 9.297c.345 0 .625-.28.625-.625V1.875A1.877 1.877 0 0024.625 0H1.875A1.877 1.877 0 000 1.875v28.25C0 31.159.841 32 1.875 32h22.75a1.877 1.877 0 001.875-1.875V25.52a.625.625 0 00-1.25 0v4.605c0 .345-.28.625-.625.625H1.875a.625.625 0 01-.625-.625V1.875c0-.345.28-.625.625-.625h22.75c.345 0 .625.28.625.625v6.797c0 .345.28.625.625.625z"/><path d="M13.25 3.375a5.756 5.756 0 00-5.75 5.75 5.732 5.732 0 001.872 4.242 5.729 5.729 0 003.878 1.508 5.73 5.73 0 003.945-1.571A5.732 5.732 0 0019 9.125a5.756 5.756 0 00-5.75-5.75zm0 10.25a4.474 4.474 0 01-2.718-.917c.549-.974 1.574-1.583 2.718-1.583s2.169.609 2.718 1.583a4.476 4.476 0 01-2.718.917zm-1-4.75v-.406c0-.551.449-1 1-1s1 .449 1 1v.406c0 .551-.449 1-1 1s-1-.449-1-1zm4.622 2.918a4.343 4.343 0 00-1.841-1.544c.294-.38.47-.857.47-1.374v-.406c0-1.241-1.009-2.25-2.25-2.25s-2.25 1.009-2.25 2.25v.406c0 .517.176.994.47 1.374a4.33 4.33 0 00-1.841 1.544 4.475 4.475 0 01-.879-2.668c0-2.481 2.019-4.5 4.5-4.5s4.5 2.019 4.5 4.5c0 .998-.327 1.921-.879 2.668zm-.247 15.582H13.25a.625.625 0 000 1.25h3.375a.625.625 0 000-1.25zm0-3.5H7.75a.625.625 0 000 1.25h8.875a.625.625 0 000-1.25zm0-3.5H7.75a.625.625 0 000 1.25h8.875a.625.625 0 000-1.25zM5.523 17.058a.63.63 0 00-.884 0 .63.63 0 000 .884.63.63 0 00.884 0 .63.63 0 000-.884zm0 3.5c-.117-.116-.277-.183-.442-.183s-.325.067-.442.183a.63.63 0 000 .884.63.63 0 00.884 0 .63.63 0 000-.884zm0 3.5c-.117-.116-.277-.183-.442-.183s-.325.067-.442.183a.63.63 0 000 .884.63.63 0 00.884 0 .63.63 0 000-.884zm11.102-7.183H7.75a.625.625 0 000 1.25h8.875a.625.625 0 000-1.25zm14.063-8.73c-.607-.351-1.315-.444-1.992-.262s-1.243.616-1.594 1.223l-7.865 13.623a.634.634 0 00-.08.243l-.554 4.959a.627.627 0 00.621.695.624.624 0 00.371-.122l4.018-2.959a.626.626 0 00.171-.191l7.865-13.623a2.628 2.628 0 00-.961-3.586zM20.004 26.65l.289-2.59 1.809 1.044-2.098 1.545zm3.009-2.463l-2.382-1.375 6.312-10.932 2.382 1.375-6.312 10.932zm7.553-13.081l-.616 1.067-2.382-1.375.616-1.067c.184-.318.48-.546.835-.641s.725-.046 1.043.137c.318.184.546.48.641.835s.046.725-.137 1.043z"/></symbol><symbol id="icon-two" viewBox="0 0 32 32"><path d="M6.625 15.525c0 2.813.648 5.629 1.875 8.16v7.377c0 .518.42.938.938.938h11.25c.518 0 .938-.42.938-.938v-5.344c.157-.16.419-.426.855-.865a9.909 9.909 0 002.895-7.023 4.708 4.708 0 00-3.044-4.406l2.811-9.837A2.816 2.816 0 0023.213.11a2.816 2.816 0 00-3.478 1.931l-1.046 3.66-1.046-3.662a2.82 2.82 0 00-3.477-1.93 2.816 2.816 0 00-1.931 3.477l1.128 3.949c-.058-.003-.115-.006-.174-.006-1.295 0-2.388.88-2.713 2.074a2.816 2.816 0 00-3.85 2.614zM23.5 17.83a8.04 8.04 0 01-2.35 5.702c-.317.319-.6.605-.804.813-.446.454-.596.606-.596.998v4.782h-9.375v-6.657c0-.145-.04-.3-.099-.419a16.932 16.932 0 01-1.73-6.289 2.802 2.802 0 002.767-.573 2.797 2.797 0 001.875.718 2.8 2.8 0 001.576-.484 4.72 4.72 0 001.924 1.818 6.556 6.556 0 00-2.563 5.199.938.938 0 001.875 0 4.693 4.693 0 014.688-4.688.938.938 0 000-1.876h-1.875a2.818 2.818 0 01-2.652-1.875h4.527c1.551 0 2.812 1.272 2.812 2.83zM14.678 1.913a.94.94 0 011.16.643l1.947 6.815a.938.938 0 001.803 0l1.947-6.815a.938.938 0 011.803.515l-2.872 10.053H16v-2.782c0-.253-.034-.516-.115-.8l-1.849-6.471a.94.94 0 01.642-1.159zm-2.428 8.43c0-.517.421-.938.938-.938s.938.421.938.938v3.75a.939.939 0 01-1.876 0v-3.75zm-2.812.937a.94.94 0 01.938.938v1.875a.939.939 0 01-1.876 0v-1.875a.94.94 0 01.938-.938z"/></symbol><symbol id="icon-globe" viewBox="0 0 32 32"><path d="M16 0C7.178 0 0 7.178 0 16s7.178 16 16 16 16-7.178 16-16S24.822 0 16 0zm-.937 7.854a21.846 21.846 0 01-4.186-.588c.215-.51.449-1 .701-1.465 1.034-1.905 2.303-3.241 3.485-3.726zm0 1.876v5.333H9.207a23.576 23.576 0 011.024-6.027 23.67 23.67 0 004.832.694zm0 7.208v5.333a23.809 23.809 0 00-4.832.694 23.568 23.568 0 01-1.024-6.027zm0 7.208v5.778c-1.183-.484-2.452-1.821-3.485-3.726a16.392 16.392 0 01-.701-1.465 21.925 21.925 0 014.186-.588zm1.875 0c1.426.061 2.838.262 4.186.588-.215.51-.449 1-.701 1.465-1.034 1.905-2.303 3.241-3.485 3.726zm0-1.876v-5.333h5.856a23.576 23.576 0 01-1.024 6.027 23.67 23.67 0 00-4.832-.694zm0-7.207V9.73a23.809 23.809 0 004.832-.694 23.568 23.568 0 011.024 6.027zm0-7.209V2.076c1.183.484 2.452 1.821 3.485 3.726.252.464.486.954.701 1.465-1.348.326-2.76.526-4.186.588zm5.133-2.947a14.273 14.273 0 00-1.517-2.279 14.118 14.118 0 015 2.978c-.814.436-1.692.815-2.615 1.132a19.154 19.154 0 00-.868-1.831zm-12.142 0a19.154 19.154 0 00-.868 1.831 17.772 17.772 0 01-2.615-1.132 14.15 14.15 0 015-2.978 14.228 14.228 0 00-1.517 2.279zM8.427 8.5a25.1 25.1 0 00-1.097 6.562H1.907A14.06 14.06 0 015.113 7.01 19.275 19.275 0 008.427 8.5zM7.33 16.938A25.094 25.094 0 008.427 23.5a19.24 19.24 0 00-3.314 1.49 14.06 14.06 0 01-3.206-8.052zm1.731 8.324c.262.636.552 1.248.868 1.831.47.865.979 1.628 1.517 2.279a14.135 14.135 0 01-5-2.978 17.772 17.772 0 012.615-1.132zm13.01 1.831c.316-.583.606-1.195.868-1.831.923.317 1.801.696 2.615 1.132a14.15 14.15 0 01-5 2.978 14.228 14.228 0 001.517-2.279zm1.502-3.593a25.1 25.1 0 001.097-6.562h5.423a14.06 14.06 0 01-3.206 8.052 19.275 19.275 0 00-3.314-1.49zm1.097-8.437a25.094 25.094 0 00-1.097-6.562 19.24 19.24 0 003.314-1.49 14.06 14.06 0 013.206 8.052z"/></symbol></defs></svg>