<svg aria-hidden="true" style="position:absolute;width:0;height:0" xmlns="http://www.w3.org/2000/svg" overflow="hidden"><defs><symbol id="telegram" viewBox="0 0 32 32"><path fill="var(--color1, #039be5)" d="M32 16c0 8.837-7.163 16-16 16S0 24.837 0 16 7.163 0 16 0s16 7.163 16 16z"/><path fill="var(--color2, #fff)" d="M7.321 15.653l15.427-5.948c.716-.259 1.341.175 1.109 1.257l.001-.001-2.627 12.375c-.195.877-.716 1.091-1.445.677l-4-2.948-1.929 1.859c-.213.213-.393.393-.807.393l.284-4.071 7.413-6.697c.323-.284-.072-.444-.497-.161l-9.161 5.768-3.949-1.232c-.857-.272-.876-.857.181-1.271z"/></symbol><symbol id="facebook" viewBox="0 0 32 32"><path fill="var(--color3, #3b5998)" d="M16 0c8.837 0 16 7.164 16 16 0 8.837-7.163 16-16 16S0 24.837 0 16C0 7.164 7.163 0 16 0z"/><path fill="var(--color2, #fff)" d="M17.948 11.015h2.062V7.969h-2.424v.011c-2.937.104-3.539 1.755-3.592 3.489h-.006v1.521h-2v2.983h2v7.996h3.014v-7.996h2.469l.477-2.983h-2.945v-.919c0-.586.39-1.056.945-1.056z"/></symbol><symbol id="youtube" viewBox="0 0 32 32"><path fill="var(--color4, #d22215)" d="M32 16c0 8.837-7.163 16-16 16S0 24.837 0 16 7.163 0 16 0s16 7.163 16 16z"/><path fill="var(--color5, #a81411)" d="M24.054 10.646c-.48.146-.98.272-1.481.398-3.556.754-8.296-1.293-10.343 2.047-1.707 2.656-2.246 5.979-4.189 8.354l10.374 10.374c6.904-1.045 12.361-6.502 13.405-13.407l-7.765-7.766z"/><path fill="var(--color2, #fff)" d="M21.353 9.521H10.647a3.803 3.803 0 00-3.803 3.803v5.352a3.803 3.803 0 003.803 3.803h10.706a3.803 3.803 0 003.803-3.803v-5.352c0-2.1-1.703-3.803-3.803-3.803zm-2.572 6.739l-5.008 2.388a.201.201 0 01-.288-.181v-4.926a.2.2 0 01.292-.179l5.008 2.538a.201.201 0 01-.004.361z"/><path fill="var(--color6, #d1d1d1)" d="M21.353 9.521h-5.461v4.913l2.893 1.466a.201.201 0 01-.004.361l-2.889 1.378v4.841h5.461a3.803 3.803 0 003.803-3.803v-5.352c0-2.1-1.703-3.803-3.803-3.803z"/></symbol></defs></svg>